<svg version="1.2" xmlns="http://www.w3.org/2000/svg" viewBox="0 0 197 265" width="256" height="256">
	<style>
		.s0 { fill: none;stroke: #000000;stroke-linecap: round;stroke-linejoin: round;stroke-width: 6 } 
		.s1 { fill: #000000 } 
	</style>
	<g id="Layer 1">
		<path id="Shape 1" fill-rule="evenodd" class="s0" d="m74.94 144.44c16.57-6.37 28.84-8.12 48.21-0.08"/>
		<path id="Shape 2" fill-rule="evenodd" class="s0" d="m135.06 152.17c0 0 31.61 12.78 36.21 50.72 1.56 32.4-29.33 54.25-73.27 53.62-40.62-0.24-69.48-18.95-70.76-48.92-1.54-36.13 35.76-55.59 35.76-55.59"/>
		<path id="Shape 6" fill-rule="evenodd" class="s1" d="m62 211c-2.21 0-4-1.79-4-4 0-2.21 1.79-4 4-4 2.21 0 4 1.79 4 4 0 2.21-1.79 4-4 4z"/>
		<path id="Shape 6 copy" fill-rule="evenodd" class="s1" d="m137 211c-2.21 0-4-1.79-4-4 0-2.21 1.79-4 4-4 2.21 0 4 1.79 4 4 0 2.21-1.79 4-4 4z"/>
		<path id="Shape 6 copy 2" fill-rule="evenodd" class="s1" d="m99 230c-2.21 0-4-1.79-4-4 0-2.21 1.79-4 4-4 2.21 0 4 1.79 4 4 0 2.21-1.79 4-4 4z"/>
		<path id="Shape 3 copy" fill-rule="evenodd" class="s0" d="m114.17 138.82c0 0 16.83-107.82 46.83-107.82 30 0-11.7 127.44-11.7 127.44"/>
		<path id="Shape 6 copy 3" fill-rule="evenodd" class="s1" d="m95 236c-2.21 0-4-1.79-4-4 0-2.21 1.79-4 4-4 2.21 0 4 1.79 4 4 0 2.21-1.79 4-4 4z"/>
		<path id="Shape 6 copy 4" fill-rule="evenodd" class="s1" d="m102.5 236.5c-2.49 0-4.5-2.01-4.5-4.5 0-2.49 2.01-4.5 4.5-4.5 2.49 0 4.5 2.01 4.5 4.5 0 2.49-2.01 4.5-4.5 4.5z"/>
		<path id="Shape 3" fill-rule="evenodd" class="s0" d="m81.85 138.3c0 0-15.9-105.3-45.9-105.3-30 0 11.7 127.44 11.7 127.44"/>
	</g>
</svg>